/* XPM */
static char *ebf0b488b1264ac5f290739dbeb4f0e9rRvpOXbpU9FJ3PLQ[] = {
/* columns rows colors chars-per-pixel */
"50 50 131 2 ",
"   c #1E0E17",
".  c #1F0F18",
"X  c #200F17",
"o  c #200F18",
"O  c #241219",
"+  c #29161C",
"@  c #26181F",
"#  c #2D191D",
"$  c #311B1F",
"%  c #2B1B21",
"&  c #351F22",
"*  c #3B1F20",
"=  c #3E2524",
"-  c #3D3437",
";  c #3D3538",
":  c #3C3C3A",
">  c #412626",
",  c #472927",
"<  c #4C2B27",
"1  c #432B2D",
"2  c #4D312E",
"3  c #56362F",
"4  c #5C322A",
"5  c #403739",
"6  c #41383A",
"7  c #573730",
"8  c #5F3D36",
"9  c #543A3C",
"0  c #593D3C",
"q  c #633F35",
"w  c #613F38",
"e  c #723F31",
"r  c #41413F",
"t  c #56433F",
"y  c #65433B",
"u  c #6A463E",
"i  c #6E493E",
"p  c #734233",
"a  c #75473A",
"s  c #7B4D3C",
"d  c #7D513F",
"f  c #454544",
"g  c #494947",
"h  c #4C4C4A",
"j  c #5B4041",
"k  c #514F4E",
"l  c #51514F",
"z  c #565654",
"x  c #595451",
"c  c #595957",
"v  c #5B5B59",
"b  c #634543",
"n  c #7E5241",
"m  c #77574A",
"M  c #72594D",
"N  c #78584B",
"B  c #635B56",
"V  c #6B5E57",
"C  c #675D58",
"Z  c #765C50",
"A  c #7B5F52",
"S  c #60605E",
"D  c #7A6257",
"F  c #656563",
"G  c #696967",
"H  c #6B6B69",
"J  c #737371",
"K  c #864C37",
"L  c #8C523D",
"P  c #835644",
"I  c #845945",
"U  c #8D5D46",
"Y  c #825B4D",
"T  c #845E52",
"R  c #9C6247",
"E  c #9C634A",
"W  c #826152",
"Q  c #8D6552",
"!  c #8F6B5E",
"~  c #906652",
"^  c #906856",
"/  c #996A56",
"(  c #916C5B",
")  c #996F5C",
"_  c #9A705D",
"`  c #AC6445",
"'  c #A5664B",
"]  c #AD6A4D",
"[  c #B36C4C",
"{  c #B86D4C",
"}  c #AC6E53",
"|  c #B07256",
" . c #B2755A",
".. c #8A6C62",
"X. c #906F64",
"o. c #8E7066",
"O. c #8A716D",
"+. c #94776C",
"@. c #8D7571",
"#. c #957C72",
"$. c #967C72",
"%. c #907F7D",
"&. c #A47969",
"*. c #A4796B",
"=. c #A57D70",
"-. c #C1704D",
";. c #92817F",
":. c #AB8A7C",
">. c #AE8B7D",
",. c #938180",
"<. c #968482",
"1. c #998A86",
"2. c #9A8B87",
"3. c #93868A",
"4. c #93868A",
"5. c #968A88",
"6. c #998D8B",
"7. c #948F95",
"8. c #938F95",
"9. c #AB8D83",
"0. c #AE9287",
"q. c #A59F9F",
"w. c #A69F9F",
"e. c #9497A2",
"r. c #9598A3",
"t. c #9D9EA4",
"y. c #9D9EA4",
"u. c #9FA9B4",
"i. c #A9AAAF",
"p. c #A8A9AE",
"a. c #A0AAB5",
/* pixels */
"g G v c v c v v v v v v c v v c v v c v v v v v v v c c v v v c g F c v c v v c v v v v v v c c c v ",
"g G v c v c v v v v v v c v v c c c v v v c c c v v c c v v v c g G c v c v z v v v c c v v z c v S ",
"g G v c v c v v v c c v v c v c c v v v v c v v v v c c v v v c g G c v c v z v v v c v v v c v v F ",
"g G v c v c v v c z z v v c v v v v v v v v v v v v c c v v v c g G c v v c S z c v v c v v v v v v ",
"g G v c v c v v c z z v v c v v v c c c v v c c v v c c v v v c g F c v v z H g h c v z z v v c v c ",
"g G v c v c v v v c v v v c v v v c c c v v c c v v c c v v v c g F v v v z H g g z v z z v v c v v ",
"g G v c v c v v v v C Q [ -.-.[ Q B v v v v v v v v c c v v B Q [ -.-.[ Q B F h h c v z c v v v c v ",
"g G v c v c v v v v B Q ] { { ] Q B v v c c c v v v c c v v B Q ] { { ] Q C z z c v v v v v c c v c ",
"g G v v v c v v v v B W E ' ' E A C v v v v v v c c v v c c B W E ' ' E W B v v c v v v c v c v v c ",
"g G v c v c v v v v B M U U U U Z B z z c v v c v v v v v v B M I U U U M c v c v v c c v v v z v v ",
"g G v c v c v v v v v M I P P P M x h h z v v c v v v v v v B M n P P I M v v v v v v c v z v v v v ",
"g G v c v c v v v v v M P P P P M x h h z v v c v v v v v v v M n P P P M v v c v v v c v z v v v v ",
"g G v c z z z z x B V A T Q Q Q D V B B B C C B B C C C B B V D W Q Q T A B B z z z k z c v v c c c ",
"g G v v 6 ; ; 5 t m Q ..@.%.5.2.$.( ~ Q Q Q Q Q Q Q Q Q Q Q ( $.2.5.%.@.X.Q N t 5 ; - 5 c v c v v v ",
"g G v c % % @ % 3 L } =.3.e.u.i.0. .[ [ [ [ [ [ [ [ [ [ [ [  .0.i.u.e.3.=.} L 3 % @ % % c c v v v v ",
"g G c z O O O O < L } &.,.7.t.q.:.| [ [ [ [ [ [ [ [ [ [ [ [ | :.q.t.7.,.&.} L < O O O O v v v c z z ",
"g H v c O O O O , s E / ! o.+.+.) E R R R R R R R R R R R R E ) +.+.o.! / E s , O O O O v F g g g g ",
"h F z v O O O O = q n P P P P P P n d d n n n n n n n n d d n P P P P P P n q = O O O O F h h f h l ",
"f g f h O O O O $ , 7 w u u u y 8 7 3 3 3 3 3 3 3 3 3 3 3 3 7 8 y u u u w 7 , $ O O O O g g g g r g ",
"g v S G O O O O O + & 1 9 j j 9 1 & # # $ $ $ $ $ $ $ $ # # & 1 9 j j 9 1 & + O O O O O c v v v l F ",
"g F F v O O O O O X + 1 0 b b 0 1 + X X O O O O O O O O X X + 1 0 b b 0 1 + X O O O O O v c v z g F ",
"g G v z O O O O O O # 2 i n n i 2 # X O O O O O O O O O O X # 2 i n n i 2 + O O O O O O z v z z g G ",
"g F v z O O O O O O $ 3 d U U d 3 $ O O O O O O O O O O O O $ 3 d U U d 3 # O O O O O O v v v v g H ",
"g v c v O O O O O O $ 3 n U U n 3 $ O O O O O O O O O O O O $ 3 n U U n 3 # O O O O O O v c z v g G ",
"g v c v O O O O O O $ 3 n U U n 3 $ O O O O O O O O O O O O $ 3 n U U n 3 $ O O O O O O v c v c g G ",
"g v z v O O O O O O $ 3 d U U d 3 $ O O O O O O O O O O O O $ 3 d U U d 3 $ O O O O O O v c v v g F ",
"g v c v O O O O O O $ 3 d U U d 3 $ O O O O O O O O O O O O $ 3 d U U d 3 $ O O O O O O z z v c g v ",
"g F v v O O O O O O $ 3 d U U d 3 $ O O O O O O O O O O O O $ 3 d U U d 3 $ O O O O O O v c v v g v ",
"g G v v O O O O O O $ 3 d U U d 3 $ O O O O O O O O O O O O $ 3 d U U d 3 $ O O O O O O v v v c f v ",
"g G v z O O O O O O $ 3 d U U d 3 $ O O O O O O O O O O O O $ 3 d U U d 3 $ O O O O O O c c c c h G ",
"g G v z O O O O O . # 3 d U U s 3 #   o O O O O O O O O o   # 3 s U U d 3 # o O O O O O v v v v g F ",
"g G v z O O O O O   # 3 s U U s 3 #     O O O . . O O O     # 3 s U U s 3 #   O O O O O c v v c g v ",
"g F v z O O O O + # > w Y Q ^ Y y > $ $ $ $ $ $ $ $ $ $ $ $ > y Y ^ Q Y w > # + O O O O v c v c g G ",
"g F v c O O O O * 4 a T O.;.6.<...s e p p p p p p p p p p e s ..<.6.;.O.T a 4 * O O O O c c v c z G ",
"g F v c O O O O < K ' *.3.r.a.i.9.} ` ` ` ` ` ` ` ` ` ` ` ` } 9.i.a.r.3.*.' K < O O O O g g g g : h ",
"g v c c O O o O < L } &.,.8.t.q.>. .{ { [ [ [ [ [ [ [ [ { {  .>.q.t.8.,.&.} L < O o O O v v v v h G ",
"g v z c O O O O , s E / ! o.+.+._ E R R E E E E E E E E R R E _ +.+.o.! / E s , O O O O c c z v f F ",
"g v c v O O O O = q n P P P P P P n d d n n n n n n n n d d n P P P P P P n q = O O O O c v v v g H ",
"h S v v O O O O $ , 7 w u u u y 8 7 3 3 3 3 3 3 3 3 3 3 3 3 7 8 y u u u w 7 , $ O O O O v v v v h G ",
"g v v v O O O O O + & 1 9 j j 9 1 & # # $ $ $ $ $ $ $ $ # # & 1 9 j j 9 1 & + O O O O O v c v z g F ",
"g v v v O O O O O X + 1 0 b b 0 1 + X X O O O O O O O O   X + 1 0 b b 0 1 + X O O O O O v v h z g F ",
"g v c c O O O O O O # 2 i n n i 2 # X O O O O O O O O O O X # 2 i n n i 2 # O O O O O O z c h g f S ",
"g c z v O O O O O O $ 3 d U U d 3 $ O O O O O O O O O O O O $ 3 d U U d 3 $ O O O O O O c c h g g F ",
"g c c v O O O O O O $ 3 n U U n 3 $ O O O O O O O O O O O O $ 7 n U U n 3 $ O O O O O O v v z h g F ",
"g v c v O O O O O O $ 3 n U U n 3 $ O O O O O O O O O O O O & 7 n U U n 3 $ O O O O O O v v v c g v ",
"g v v v O O O O O O $ 3 d U U d 3 $ O O O O O O O O O O O O $ 7 d U U d 3 $ O O O O O O v z c v g v ",
"g v c c v z v v c c v v z g g z v F z f J c c v v v z z h g g h f v v v h h z c v v G F S v z v f v ",
"g v c c v v v c v v c v v v c S z v z h F c v z z c v v f h f h g v c c z c v v c z G F F v c v h F ",
"g F c c z v c c v c v c c c z c h c h G c v c v v v v g g g g h g v v v v c c v v c v v c v v z g c ",
"h G v v c v v v v c v c c c z v z v g H c v z v v v v g g g g h g v v v v c c v v v v v v v v z g c "
};
