/* XPM */
static char *result[] = {
/* columns rows colors chars-per-pixel */
"50 50 87 1 ",
"  c #3C3C3A",
". c #3F3F3D",
"X c #40403E",
"o c #41413F",
"O c #414141",
"+ c #424240",
"@ c #434341",
"# c gray26",
"$ c #444442",
"% c #454543",
"& c #444444",
"* c gray27",
"= c #464644",
"- c #474745",
"; c #464646",
": c gray28",
"> c #484846",
", c #494947",
"< c #484848",
"1 c #494949",
"2 c #4A4A48",
"3 c #4B4B49",
"4 c #4B4B4B",
"5 c #4C4C4A",
"6 c #4D4D4B",
"7 c #4C4C4C",
"8 c gray30",
"9 c #4E4E4C",
"0 c #4F4F4D",
"q c #4E4E4E",
"w c gray31",
"e c #50504E",
"r c #51514F",
"t c #515151",
"y c #525250",
"u c #535351",
"i c gray32",
"p c #535353",
"a c #545452",
"s c #555553",
"d c gray33",
"f c #555555",
"g c #565654",
"h c #575755",
"j c #565656",
"k c gray34",
"l c #585856",
"z c #595957",
"x c #585858",
"c c gray35",
"v c #5A5A58",
"b c #5B5B59",
"n c #5A5A5A",
"m c #5B5B5B",
"M c #5C5C5A",
"N c #5D5D5B",
"B c gray36",
"V c #5D5D5D",
"C c #5E5E5C",
"Z c #5F5F5D",
"A c gray37",
"S c #5F5F5F",
"D c #60605E",
"F c #61615F",
"G c #606060",
"H c gray38",
"J c #626260",
"K c #636361",
"L c #646462",
"P c #656563",
"I c #646464",
"U c #656565",
"Y c #666664",
"T c #676765",
"R c #676767",
"E c #686866",
"W c #696967",
"Q c #6A6A68",
"! c #6B6B69",
"~ c #6C6C6A",
"^ c #6D6D6B",
"/ c #6E6E6C",
"( c #6F6F6D",
") c #70706E",
"_ c gray44",
"` c #717171",
"' c #737371",
/* pixels */
",WvlMzbvbvvvlbMzbvzvbMbvvvzzvvvz,TzNzbvzvbvvNbllzM",
",WvlMzbvNvvbzvvlzzvvvzzzvvzzvvvz,EzMlMgMbvlzMvhzvF",
",WvlMzbvMlzbvzvzzvMbvzvbvvzzvvvz2WzvzMgMNbzvNbzbCP",
",WvlMzbvzshbvlvbvbbbvvvvvvzzvvvz2EzvvlDalMMzbMbbMN",
",WvlMzbvzshMvlvMvzzzvvzlvvzzvvvz2TzvMs^25lbsgbbzvz",
",WvlMzbvMzvMvzvbvzlzvbzlvvzzvvvz,YvvMa(--svasbMzbN",
",WvlMzbvNbbbllbvvvvvbbvvvvzzvvvz,TvvblL90lvhzMbvzv",
",WvlMzbvbvvzglbvhzvvzlzvvvzzvvvz,EzvzMhhzMbvbvlzbl",
">WbvNzbvbbbbvvvvzMNMbbbvlzvvzzvb2WbvbzMvlMvClvlbvz",
",QbzMzMbbbvvvvvvNvhslbblvvvvvvvv,EbvblMzNvzzMMvhbv",
"2QvlbzMbvvvvvvvvba66sMMlMbvvbMbz2WbvbzNvbvNlMhbvMb",
",Wvlblbvvvvvvvvvva99sMMzMbvvbbvv2EbvbzMzvbNzvgvMvv",
">WvzMzvzvvbbbbbbMblhzbblvbbbvzvv>TvzvhblMbhvzNvzzz",
",QbvNzbzvvvvvbbbvMNMvvvvzvbbzzvb,EbvblMzvbhMlNzbbM",
",QbzMzbzzzvvvvvvhzbvzvbbvvvvvvvv2WbvMzNvhvMMzzvNvb",
",Wzhvhvzzzzzzzvvvbvlzvvzbvzzbbbv>TzzvhblvhvlCbMzsg",
"-(MzNlbbvvbbbbbbbNMzzMMvbMNzhbNz,!ZvzzNvvZrKbL33->",
"0PgvMlbvzzzzzzvvlllzbMMvMzvbzzvv6PgzCbbzMsKuY50+9r",
"+3%62->-2222,,,,3,,2>%=>6->52=-2Xa>35%=5--362>,2o3",
"3NFETWQ~WWWWWWEEQWWTFvCYJMNFZvvM2TPTPMlb~QTEzvvbrP",
">PJbzbhgbbbbvvvvbbMNzslCNvbNvzzz>PZvbZblbhMNblbh,T",
">ECggMMzzzzzzzzllzvbNCMvvzbbzbNv2EFyyMbbvvsChMgg,Q",
"2Lvg65gybbbbbbbblNNllMbabvbbzbNb$KKMbMshMvvhNvMN2~",
"=MzZ3$zlzzzzzvvvCTTbsbZbCvvbzzvb5MhhCFvDszvzNlhb,!",
">blCzlNzzvbbzzzvbW!DvbzgzvvZgbvl2blNaZCvghZlZlNz>!",
"-MhNvzNzzvvvzvbNvbbvs5-,9vzvlNlz>zzbMzNhNvNsMlZM,L",
",ZlbvzbhzvvvzvMCZvhMv9%>>bbhbChv3ZhzCabvMllehsbz>b",
"3PvvbvbzvbbvzvbMMMzvbh066bMlvblv,EsMvgvNzlvgbzNv3M",
"2EMvMbbNzvbbvvvvlbvlvMlaghbvlhvv$!zNbvMChzNbNvMz$b",
",!MhvgyalzvbbbvvbbvbNMbNNhbMvlCb>WZhNvJFhvMvzlzl5W",
">!bsbs3,zzvvbbvvvvlzbzlbNvblCbbh5LNsbzbvMNMbvbbb3T",
"=QvgDb6,MMbvvvvzvNblvMvllNzrZvu0=NhMvz2-zzlllbvz=N",
"2TNhvbhhvMbhbvhMvvvbbvvzNlmdVA<82~gMMN65MzNzbzNz>Q",
",YNlvbzbzzzvvMlzvbbbvvzzszSAntwO5WDlszzhblvzzlbzyQ",
"3LMzvzlbvbvZhMvvbbbbvvzzbbnnj7#7+22,e23-5,,5,,,2 0",
",ZlzbzlvvNMK9avMvvvvvvvvvbckH<q*sKWW^FFYKZNKNNbC6W",
"=vszMMvvuvNK>3hMvvvvvvbbNrIn;Ic;=TDszbzMNvlZlzhv@Y",
"2Nlbbbvl0lNL65zvvvvvvvbbbMmx*GHd5/lsMDvzvllNzvvb3~",
"5DMMlzvlsvvFhaClbbvvvvvvzuU:RfkB-QlCvulvbzMbbvNv6!",
",ZMbgzNNNbaMMzDaMMbvzzzzvNf4Sfmm5!hbvlLubzNzblbg>T",
"-bvvNzMbbvbzsbNglMbzlCvvbl&_jmVB=LCzzCNzMbJFvC0s,J",
"2blzMhvvvhMZbzbMlszlZyhDs2`mmnpi>NhzlghNzlMMhz53%D",
",zhbZlvbvhvCblzbZMZhhbNa0@ViVVmG,bhCCvzNvbvbll6=-T",
",zlvz5,,bvzlzbMvrNaMZh3-EC1mmxcA%bhllbbgbNvbbvg9>Y",
">vzbl2,3vbbzllzbCNblu5!gNhjqcjnm9PZhelDNhvzzbvNz,C",
"-vvMNgzNlzbNh33hv5Pv.)hhbhG1p181=Mbs=-ulvbZMbhzv>b",
"2bzzMhvbzzvMh2,gMKg$'hzZCNkj8117%vMM96szNbEJFvgv%N",
",vlzCbMzbMzvNvzDsMs5Thbhgznn#q#q2blzulZbzhQTTZlC5Y",
">TzlgbzlMzbzllgz9z6!lMzCvbn:44;7-vNbNzlbvzbbzvvg,z",
"5QMbzNMbMzbzzzhbhv2~zvsCvvc:44;7>vNMNzlvbvbbvbbh3z"
};
