/* XPM */
static char *_3c363fd841f4b9dd988ee88ff63ef693OQjvFz0SnlaLmOp[] = {
/* columns rows colors chars-per-pixel */
"50 50 126 2 ",
"   c #1F0C12",
".  c #210F14",
"X  c #25141A",
"o  c #28171D",
"O  c #2A191F",
"+  c #2C1C23",
"@  c #2E2125",
"#  c #2F2428",
"$  c #302327",
"%  c #33252B",
"&  c #352A2D",
"*  c #362B30",
"=  c #392E33",
"-  c #373131",
";  c #3B3234",
":  c #3E3539",
">  c #3E3C3B",
",  c #42363D",
"<  c #433B3D",
"1  c #41413F",
"2  c #433740",
"3  c #453B42",
"4  c #483D46",
"5  c #4B3F48",
"6  c #464544",
"7  c #4A4445",
"8  c #494947",
"9  c #4C444C",
"0  c #4C4B4A",
"q  c #514E4D",
"w  c #51504F",
"e  c #4E4751",
"r  c #4F4951",
"t  c #524C54",
"y  c #544F58",
"u  c #584F59",
"i  c #565554",
"p  c #585756",
"a  c #595957",
"s  c #57545C",
"d  c #5B535D",
"f  c #5B5B59",
"g  c #61605F",
"h  c #5E5660",
"j  c #5F5B62",
"k  c #625D67",
"l  c #645E69",
"z  c #656563",
"x  c #696967",
"c  c #64636C",
"v  c #69636D",
"b  c #6B6B69",
"n  c #70706E",
"m  c #666570",
"M  c #6C6A75",
"N  c #6D6F7A",
"B  c #716C77",
"V  c #716D79",
"C  c #6E7376",
"Z  c #6E717B",
"A  c #717171",
"S  c #74727D",
"D  c #73797C",
"F  c #737781",
"G  c #787580",
"H  c #777E82",
"J  c #797B83",
"K  c #7C7E8A",
"L  c #817F8B",
"P  c #7A8285",
"I  c #7C828E",
"U  c #7F818D",
"Y  c #7C828C",
"T  c #7E8590",
"R  c #80838B",
"E  c #81808C",
"W  c #82808D",
"Q  c #83828E",
"!  c #83828F",
"~  c #84838F",
"^  c #818A8F",
"/  c #818591",
"(  c #848490",
")  c #808793",
"_  c #888794",
"`  c #818894",
"'  c #828A93",
"]  c #898A97",
"[  c #848C98",
"{  c #858E9A",
"}  c #8B8C98",
"|  c #8C8C99",
" . c #8B8F9B",
".. c #87919B",
"X. c #8C949E",
"o. c #90929F",
"O. c #8A95A1",
"+. c #8E99A5",
"@. c #9093A0",
"#. c #9295A2",
"$. c #9599A6",
"%. c #949DAA",
"&. c #959EAB",
"*. c #929FAA",
"=. c #95A1AE",
"-. c #96A3B0",
";. c #9AA3B0",
":. c #98A6B0",
">. c #9AA8B5",
",. c #9CAAB7",
"<. c #9AAAB7",
"1. c #9DADB9",
"2. c #9FB0BD",
"3. c #A1ACB9",
"4. c #A5B1BF",
"5. c #A0B1BD",
"6. c #A6B3C1",
"7. c #A7B3C1",
"8. c #A4B5C2",
"9. c #A9B5C4",
"0. c #A7B9C7",
"q. c #A7B9C7",
"w. c #A8BAC8",
"e. c #AABCCA",
"r. c #ACBFCD",
"t. c #ADC0CE",
/* pixels */
"8 x f a f a f f f f f f a f f a f f a f f f f f f f a a f f f a 8 x a f a f f a f f f f f f a a a f ",
"8 x f a f a f f f f f f a f f a a a f f f a a a f f a a f f f a 8 x a f a f p f f f a a f f p a f g ",
"8 x f a f a f f f a a f f a f a a f f f f a f f f f a a f f f a 8 x a f a f p f f f a f f f a f f z ",
"8 x f a f a f f a i p f f a f f f f f f f f f f f f a a f f f a 8 x a f f a g i a f f a f f f f f f ",
"8 x f a f a f f a i p f f a f f f a a a f f a a f f a a f f f a 8 x a f f i b 8 0 a f i p f f a f a ",
"8 x f a f a f f f a f f f a f f f a a a f f a a f f a a f f f a 8 x f f f i b 6 6 i f i i f f a f f ",
"8 x f a f a f f f f f f a a f a f f f f f f f f f f a a f f f a 8 x f f f a z 0 0 a f p a f f f a f ",
"8 x f a f a f f f f f a p a f a p a f f a a a f f f a a f f f a 8 x a f a f p p a f f f f f a a f a ",
"8 x f f f a f f f f f f f f f f a f f f f f f f a a f f a a f f 8 x f f f a f f a f f f a f a f f a ",
"8 x f a f a f f f f f f f f f f f f p i a f f a f f f f f f f f 8 x f f f a f a f f a a f f f p f f ",
"8 x f a f a f f f f f f f f f f f i 0 0 i f f a f f f f f f f a 8 x f f f a f f f f f a f p f f f f ",
"8 x f a f a f f f f f f f f f f f i 0 0 i f f a f f f f f f f f 8 x f f f a f a f f f a f p f f f f ",
"8 x f a f a f a f f f f f f f f f f a p a f f a f f f f f a f f 8 x f a f p f a f f p f a f f a a a ",
"8 x f f f a f a f f f f f f f f f f f f f f f f a f f f a a f f 8 x f f f a f a f f p f a f a f f f ",
"8 x f a f a f a a a f f f f f f p a f f a f f f f f f f f f f f 8 x f f f a f f p f f f a a f f f f ",
"8 x a p f p f a a a a a a a f f f f f a a f f a f f a a f f f f 8 x a a f p f a f p f a f f f a i p ",
"6 b f a f a f f f f f f f f f f f f f a a f f f f f f a p f f a 8 x f f a a f f f f w z f z 8 8 6 8 ",
"0 z p f f a f f a a a a a a f f a a a a f f f f f i i i w i p f 0 z p a f f f a f i z i x 0 0 6 0 w ",
"6 8 6 0 8 6 8 6 8 8 8 8 8 8 8 8 8 8 8 8 8 6 6 8 6 - % % & - < 8 1 i 8 8 0 6 6 0 6 6 8 0 8 8 8 8 1 8 ",
"8 f g x x x x b x x x x x x x x x x x x g f f z q = + + + = 8 f 8 x z x z f a f b x x x a f f f w z ",
"8 z z f a f p p f f f f f f f f f f f f a i 0 0 7 9 9 9 3 3 3 8 < z f f f f f a f p f f f a f p 8 x ",
"8 x f p p f f a a a a a a a a a a a f f f p < & 9 Z [ / S h , & ; g g i i f f f f f i f p f p p 8 x ",
"8 z f p 0 0 i 0 i i i i i i i i q i i w w q : & t I -.%.( v 4 & * i f f f f i p f f f p f f f f 8 b ",
"6 f a f 8 6 i 8 < : ; ; ; ; ; ; : , , ; = : 7 t j m M c j d d t 4 < < 0 f g f g i a f a f a p f 8 x ",
"8 f a f a a p < $ o + + + + + + + + + + + * d G M 9 * + % 5 M G u & & 8 i f f f p p f a f a f a 8 x ",
"6 f p f f a i : + + = , , , , , , , 3 , , 9 M _ S 9 @ . X 3 S ~ h $ $ 7 f f f p f f f i f a f f 8 z ",
"8 f a f f a i ; + = u M B M M M M B V V V S Q | J j < @ o 3 S Q d $ $ 7 f i f f f a a w p i f a 8 f ",
"8 z f f f f i ; + 2 V @.$.#.#.#.o.] Q L L ~  .o.R M i = + 3 V Q d $ @ 8 f p f f a a f p f a f f 8 f ",
"8 x f a f f i : + 4 K 3.9.7.7.4.;.I l d d c I %.X.C i ; + 3 V L d $ $ 8 f f f f p a f f f f f a 6 f ",
"8 x f p f p 0 & + 9 ` 0.t.w.e.r.,.N , + + , Z >.:.D i ; + 3 V Q d $ % 6 f f z g p f f f a a a a 0 x ",
"8 x f i f i 6 % + 9 [ 0.1.O.*.0.5.F : o   % M 1.1.H i & + 3 J  .k % $ < f a f f f f f f f f f f 8 x ",
"6 x a p g f 8 % + 9 ..5.T s M =.8.' i & o % M 2.1.P i % o 5 ` =.M & @ 7 a a 8 6 a a a a a f f a 6 f ",
"8 x f p f f q = + e ..,.Z : 9 I =.^ z 8 % = c +.*.H z 3 : y / +.c = % 8 f f 0 0 f a f a f a f a 8 x ",
"8 x f a f f w ; + e O.8.P 8 < s c c f i 3 3 t c S ^ ..Y S M M c e 7 7 q i a a p f a f a a a f a i x ",
"8 z f a f a q ; + 9 [ 5.' j 6 ; = 6 p f p q , = y ` 2.8.>.I t = * 6 6 8 w 8 8 6 0 8 8 0 8 8 8 8 > 0 ",
"8 f a a f a i < = 7 N T C f 8 ; & < i f f i , & 4 M [ O.[ N 4 @ : f x x b g g x z f f z f f f f 0 x ",
"6 f i a f f p w 6 7 9 9 7 8 i 0 8 q p f f p w 8 8 9 9 e 9 9 7 : > z g i a f a f f f a f a a p f 6 x ",
"8 f a f f f f a 0 8 = % ; 8 a f a f f f f f f a 0 = + o + : q i 0 b a i f g f a f a a f a f f f 8 b ",
"0 g f f a a f a i q < , 6 q f a f f f f f f f a q : , # , , 0 f 6 x a f f i a f f a f f f f f f 0 x ",
"8 f f f p a f f f a q i p a g i f f f f a a a a p p 0 6 p q f f 0 x p f f a z i f a f a f a f p 8 x ",
"6 f f f f a f f f f f a i f f p a f f a a f f f f a 6 A p f f f 6 z f a a f f a f f z g f f 0 i 8 z ",
"8 f a a f p f f f p f f f a f f a i a a f i p g p 8 A f f f i i 8 f p a a p p f a a f f p a 0 8 6 g ",
"8 a p f f a f f f p f f f a a f f f f p p f f i 0 6 f i f f f z 8 f p f f f a f f f f f a a 0 6 6 x ",
"8 a a f a 0 8 8 f f a a a f f f w f i f f p 8 6 x f 8 f f f f f 6 f p a a f f p f f f f f f p 0 8 x ",
"8 f a f a 8 8 8 f f f a a a a f f f f a i 0 x p f p p 0 f p f f 0 z f p w a g f p f a a f f f a 8 f ",
"6 f f f f p a f a a f f p 8 8 p f 0 z f > n p p f p z 8 i 8 0 8 6 f f i 6 6 i a f f f f f p a f 8 f ",
"8 f a a f p f f a a f f p 8 8 p f z p 6 A p a f f f p p 0 8 8 0 6 f f f 0 0 i a f f x z g f p f 6 f ",
"8 f a a f f f a f f a f f f a g i f i 0 x p f p p a f f 6 0 6 0 8 f a a i a f f a p x x x f a f 0 x ",
"8 x a a p f a a f a f a a a p a 0 a 0 x a f a f f f f 6 8 8 6 0 8 f f f f a a f f a f f a f f p 8 a ",
"0 x f f a f f f f a f a a a p f p f 8 b a f i f f f f 6 8 8 6 0 8 f f f f a a f f f f f f f f p 8 a "
};
