/* XPM */
static char *xpm_[] = {
/* columns rows colors chars-per-pixel */
"50 50 179 2 ",
"   c #210E15",
".  c #221016",
"X  c #25141B",
"o  c #29161D",
"O  c #271B1E",
"+  c #2A191E",
"@  c #301A1D",
"#  c #261C21",
"$  c #2C1D23",
"%  c #331E21",
"&  c #381E21",
"*  c #2D2125",
"=  c #2E2629",
"-  c #2F292B",
";  c #322127",
":  c #3B2324",
">  c #33252C",
",  c #38272D",
"<  c #342B2E",
"1  c #3D2B2B",
"2  c #2E2D30",
"3  c #332731",
"4  c #342C31",
"5  c #392C32",
"6  c #353535",
"7  c #3B3235",
"8  c #373837",
"9  c #3C3937",
"0  c #363739",
"q  c #3D343A",
"w  c #373838",
"e  c #3B3A3A",
"r  c #42231F",
"t  c #422624",
"y  c #442927",
"u  c #4D2923",
"i  c #492C28",
"p  c #442E2D",
"a  c #4E312C",
"s  c #5A362D",
"d  c #453633",
"f  c #493233",
"g  c #443835",
"h  c #4B3934",
"j  c #41353C",
"k  c #423B3D",
"l  c #4A3C3C",
"z  c #5D3A30",
"x  c #553D3C",
"c  c #60342A",
"v  c #623E33",
"b  c #6E3F32",
"n  c #43413F",
"m  c #4D413C",
"M  c #5F483E",
"N  c #59433A",
"B  c #634035",
"V  c #6B4236",
"C  c #67463B",
"Z  c #644B3F",
"A  c #6C4B3E",
"S  c #6A463B",
"D  c #754E3E",
"F  c #7C4A39",
"G  c #794535",
"H  c #7B513F",
"J  c #453C42",
"K  c #493E46",
"L  c #453F4A",
"P  c #4A3F48",
"I  c #454544",
"U  c #4A4445",
"Y  c #494947",
"T  c #4B444B",
"R  c #4C4B4A",
"E  c #45444C",
"W  c #544444",
"Q  c #514E4D",
"!  c #52504F",
"~  c #4D4750",
"^  c #4E4952",
"/  c #504751",
"(  c #544B55",
")  c #564E58",
"_  c #584F59",
"`  c #4E5256",
"'  c #565654",
"]  c #5A5756",
"[  c #595957",
"{  c #55515A",
"}  c #5B535C",
"|  c #5B5B59",
" . c #694C45",
".. c #745141",
"X. c #7D5644",
"o. c #6B5756",
"O. c #685851",
"+. c #615E5D",
"@. c #695A5E",
"#. c #61615F",
"$. c #575761",
"%. c #5C5661",
"&. c #5D5A64",
"*. c #5F5E68",
"=. c #625B65",
"-. c #635F6A",
";. c #656563",
":. c #696967",
">. c #64626B",
",. c #68636D",
"<. c #6B6B69",
"1. c #70706E",
"2. c #646671",
"3. c #6B6671",
"4. c #6A6A75",
"5. c #6C6E7A",
"6. c #666D74",
"7. c #716C77",
"8. c #726F7A",
"9. c #6D717D",
"0. c #74727D",
"q. c #737371",
"w. c #82513E",
"e. c #90553E",
"r. c #835642",
"t. c #8E5C46",
"y. c #9C5C42",
"u. c #84645A",
"i. c #996852",
"p. c #A06045",
"a. c #A56649",
"s. c #737580",
"d. c #797681",
"f. c #767B86",
"g. c #797A85",
"h. c #777E88",
"j. c #7C7E8A",
"k. c #817F8C",
"l. c #7B818D",
"z. c #7F8691",
"x. c #82818D",
"c. c #8D8489",
"v. c #848592",
"b. c #848A96",
"n. c #898A96",
"m. c #858E9A",
"M. c #8C8D99",
"N. c #86909C",
"B. c #8D909D",
"V. c #93949D",
"C. c #8C94A1",
"Z. c #8F9BA7",
"A. c #8F9CA8",
"S. c #9295A2",
"D. c #949AA7",
"F. c #939DAA",
"G. c #9A9DAB",
"H. c #95A1AE",
"J. c #95A2AF",
"K. c #99A1AE",
"L. c #97A6B2",
"P. c #9AA4B2",
"I. c #9AA9B6",
"U. c #9BAAB7",
"Y. c #9DADBA",
"T. c #9FAFBC",
"R. c #9DADBA",
"E. c #A0A9B7",
"W. c #A2ADBB",
"Q. c #A2ADBB",
"!. c #A1B1BF",
"~. c #A2B0BE",
"^. c #A3B5C2",
"/. c #A4B5C3",
"(. c #A9BAC7",
"). c #AAB8C7",
"_. c #AABCCA",
"`. c #ABBCCB",
"'. c #ACC0CE",
/* pixels */
"Y :.| [ | [ | | | | | | [ | | [ | | [ | | | | | | | [ [ | | | [ Y :.[ | [ | | [ | | | | | | [ [ [ | ",
"Y :.| [ | [ | | | | | | [ | | [ [ [ | | | [ [ [ | | [ [ | | | [ Y :.[ | [ | ' | | | [ [ | | ' [ | #.",
"Y :.| [ | [ | | | [ [ | | [ | [ [ | | | | [ | | | | [ [ | | | [ Y :.[ | [ | ' | | | [ | | | [ | | ;.",
"Y :.| [ | [ | | [ ' ' | | [ | | | | | | | | | | | | [ [ | | | [ Y :.[ | | [ #.' [ | | [ | | | | | | ",
"Y :.| [ | [ | | [ ' ' | | [ | | | [ [ [ | | [ [ | | [ [ | | | [ Y :.[ | | ' <.Y R [ | ' ' | | [ | [ ",
"Y :.| [ | [ | | | [ | | | [ | | | [ [ [ | | [ [ | | [ [ | | | [ Y :.| | | ' <.Y Y ' | ' ' | | [ | | ",
"Y :.| [ | [ | | | | | | [ [ | | | | | | | | | | | | [ [ | | | [ Y :.| | | [ ;.R R [ | ' [ | | | [ | ",
"Y :.| [ | [ | | | | | [ ' [ | | ' [ | | [ [ [ | | | [ [ | | | [ Y :.[ | [ | ' ' [ | | | | | [ [ | [ ",
"Y :.| | | [ | | | | | | | | | | [ | | | | | | | [ [ | | [ [ | | Y :.| | | [ | | [ | | | [ | [ | | [ ",
"Y :.| [ | [ | | | | | | | | | | | | ' ' [ | | [ | | | | | | | | Y :.| | | [ | [ | | [ [ | | | ' | | ",
"Y :.| [ | [ | | | | | | | | | | | ' R R ' | | [ | | | | | | | [ Y :.| | | [ | | | | | [ | ' | | | | ",
"Y :.| [ | [ | | | | | | [ k +                       > R | | | | Y :.| | | [ | [ | | | [ | ' | | | | ",
"Y :.| [ | [ | [ | | | ' Q U j q 5 5 5 5 5 5 5 5 5 5 j U ' ' | | Y :.| [ | ' | [ | | ' | [ | | [ [ [ ",
"Y :.| | | [ | [ | | ' n 5 R 0.f.8.3.3.3.3.3.3.3.3.3.} j q R | | Y :.| | | [ | [ | | ' | [ | [ | | | ",
"Y :.| [ | [ | [ [ ' ! j 5 *.H.W.B.k.k.x.x.x.x.x.v.x.=.5 * U | | Y :.| | | [ | | ' | | | [ [ | | | | ",
"Y :.[ ' | ' | [ ' I j ( 4.b.P.C.3.) / ( ) _ ) ( ) ) J $ $ U | | Y :.[ [ | ' | [ | ' | [ | | | [ ' ' ",
"Y <.| [ | [ | | ' 5 > -.L.~.D.8.j $ $ ; $ $ $ ; $ $ $ $ < U | [ Y :.| | [ [ | | | | ! ;.| ;.Y Y Y Y ",
"R ;.' | | [ | | ! < * *.H.W.S.3.5 $ T { 5 o q { J $ 3 { &.T J Q R ;.' [ | | | [ | ' ;.' :.R R I R ! ",
"I Y I R Y Y Y Y I > $ ) n.G.S.4.5 q h.C.{ > >.A.5.3 T m.m.T $ 7 e ' Y Y R I Y R Y Y Y R Y Y Y Y n Y ",
"Y | #.:.:.:.:.<.+.q $ ( x.G.K.0.5 q m.R.&.; 4.!.h.3 ~ H.F.^ $ j Y :.;.:.;.| [ | <.:.:.:.[ | | | ! ;.",
"Y ;.;.| [ | ' ' ' 5 $ ( v.E./.z.q q m.I.&.> 4.R.f.3 ^ F.Z.~ $ j Y ;.| | | | | [ | ' | | | [ | ' Y :.",
"Y :.| ' ' | | [ ! < $ ( n.W._.A.*.&.Z.T.s.{ l.^.m.} 4.I.Z.~ $ j Y :.#.! ' | | | | | ' | ' | ' ' Y :.",
"Y ;.| ' R R ' ' ' 5 $ ) n.W.(.^.F.F.^._.I.F.T.'.!.A.L._.Z.T $ j I ;.;.| | | ' ' | | | ' | | | | Y <.",
"Y | [ | Y I [ [ ! 5 $ K 0.S.Q.(.(.(.(./.R.H.F.H.R././.I.l.T < I Y | ' ' ' ' Q ' ' [ | [ | [ ' | Y :.",
"Y | [ | [ [ | [ ' 7 $ ; K 3.S.E.U.P.P.S.0.{ ^ ) s.G.B.,.^ T Y Q Y | ' U < < < 5 ' ' | [ | [ | [ Y :.",
"Y | ' | | [ | ' R 5 o . $ T 0.n.B.S.S.x.} , $ , ) d.,.5 * J ' ] Y ' Q J , $ o X | | | ' | [ | | Y ;.",
"Y | [ | | [ ' k < +   X * 7 T -.x.S.S.n.7.} } &.} ( j X . > j Q U Y 7 K ) K $ . | [ [ ! ' ' | [ Y | ",
"Y ;.| | | [ Q q $ $ $ > 6 - $ J 0.M.M.n.M.M.M.x.&.3 o $ $ o * I I J , } j.,.5   [ [ | ' | [ | | Y | ",
"Y :.| | | j J T ) &.*.T 4 * $ q | ,.&.>.b.P.v.=.j o , { { 3 + > < U ( g.K.g.q   ' [ | | | | | [ I | ",
"Y :.| ' | o 5 =.v.P.H.2.> O < w e e , J l.I.s.5 X o ~ N.m.T X . > } x.P.!.h.q   ' | | | [ [ [ [ R :.",
"Y :.| ' |   5 3.D.`._.0.> O 6 6 - < q ) v.L.z.$.q > &.I.H.^ o , / j.K.G.z.>.J < | | | | | | | | Y :.",
"Y :.| ' #.  5 ,.S.(./.9.> O 6 < $ 5 =.k.M.D.P.F.4.I &.L.F.T ; ) j.L.!.h.T j k k [ [ [ [ [ | | [ Y | ",
"Y :.| ' |   , @.c.V.b.$.$ # 4 < # 5 } g.M.D.G.C.6.I ` h.d.W f } 0.b.b.>.5 q I R | [ | [ | [ | [ Y :.",
"Y :.| [ |   :  .u.o.K 3 o $ 4 6 2 4 5 / v.L.l.( e 0 0 J W C S x j J P U I R ' ' | [ | [ [ [ | [ ' :.",
"Y ;.| [ | . % z V i X X % 1 g m m d + 3 h.R.5.; % h d > 1 B V y X . $ 5 R Y Y Y R Y Y R Y Y Y Y e R ",
"Y | [ [ | . o : t @ X t v S A X.t.F r 3 l.^.5.; u w.X.W l p t @ X < Y ] :.#.#.:.;.| | ;.| | | | R :.",
"Y | ' [ | $ $ $ + X o a D r.X.t.a.e.u 3 9.A.2.> s y.i.O.w 5 $ o $ U | ' [ | [ | | | [ | [ [ ' | I :.",
"Y | [ | | j j j 5 * o 1 N M M Z ..C : $ L $.E 5 h A Z l < j J q 7 | ' ' | #.| [ | [ [ | [ | | | Y <.",
"R #.| | [ ' ' ' U 5 $ = 7 e 9 e e 7 $ X $ ; < 6 7 9 < $ < J ' | I :.[ | | ' [ | | [ | | | | | | R :.",
"Y | | | ' [ [ R j < = < 6 6 6 6 6 2 # + u c a < 2 6 4 = < 7 U ' R :.' | | [ ;.' | [ | [ | [ | ' Y :.",
"Y | | | | [ ! q $ = 6 6 6 6 6 6 6 4 # & G y.b % * 6 6 6 < $ > U I ;.| [ [ | | [ | | ;.#.| | R ' Y ;.",
"Y | [ [ | ' Q < + = 6 w 6 6 6 6 6 4 # & F p.V @ # 6 w w 4 $ $ j Y | ' [ [ ' ' | [ [ | | ' [ R Y I #.",
"Y [ ' | | [ Q < + = 6 w 6 6 6 6 6 4 # % V r.z + # 6 w w 4 $ $ U Y | ' | | | [ | | | | | [ [ R Y Y :.",
"Y [ [ | [ R k > + = 6 w 8 6 6 6 6 4 # % v H s + # 6 w 8 < $ $ U I | ' [ [ | | ' | | | | | | ' R Y :.",
"Y | [ | [ Y Y Y | | | [ [ [ [ | | | | [ ' R :.' | ' ' R | ' | | R ;.| ' ! [ #.| ' | [ [ | | | [ Y | ",
"Y | | | | ' [ | [ [ | | [ R R [ | R ;.| e 1.' ' | ' ;.Y ' Y R Y Y | | ' Y Y ' [ | | | | | ' [ | Y | ",
"Y | [ [ | ' | | [ [ | | ' Y Y ' | ;.' I q.[ | | | | ' ' R Y Y R I | | | R R ' [ | | :.;.#.| ' | I | ",
"Y | [ [ | | | [ | | [ | | | [ #.' | ' R :.' | ' ' [ | | I R I R Y | [ [ ' [ | | [ ' :.:.:.| [ | R :.",
"Y :.[ [ ' | [ [ | [ | [ [ [ ' [ R [ R :.[ | [ | | | | Y Y Y Y R Y | | | | [ [ | | [ | | [ | | ' Y [ ",
"R :.| | [ | | | | [ | [ [ [ ' | ' | Y <.[ | ' | | | | Y Y Y Y R Y | | | | [ [ | | | | | | | | ' Y [ "
};
