/* XPM */
static char *result[] = {
/* columns rows colors chars-per-pixel */
"50 50 5 1 ",
"  c #1B1514",
". c #261F19",
"X c #44332B",
"o c #553E36",
"O c #6B5644",
/* pixels */
"oo.oooooooooo.OoooooooXX.Xoooooooo.oooooooooooooX ",
"oo.oooooooooo.ooooooXXXX.XXXoooooo.oooooooooooXXX.",
"  ................................................",
"XX.ooooooOOOO.oooOOOOOOO.oooooooXX ooooooOOOOoooo.",
"XX.XXoooooooO.oooooooooo.oooooooXX XXoooooooOoooo.",
"XX.XXXXXooooO.oooXXXXooo.XooooXXXX XXoooooooOoooX.",
"XX.XXXXXXoooO.ooXXXXXXoo.XXoooXXXX XooooooooOooXX ",
"....     ...............        .. oooooo  ....   ",
"oOOOOO.OOOoooXXXX.XXXXooOOOO ooooOOoooooooooo.OOOO",
"Oooooo.OooooooXXX.XXoooooooO oOOOoooooooooooo.Oooo",
"ooooXX.ooooooooXX XXooooooOO.oooooooooooooooo.OOoo",
"XXXXXX.XoooooooXX XXoooooooO ooXXXXoooooooooo.Oooo",
"XXXXXX.XXXooooXXX XXXXoooooo XXXXXXXooooooooo.oooo",
"................    ..ooo     .....oooooo.........",
"Oo.OOOOOOoooo.ooooooooooooXXooOOOo.oooooooooooXXX.",
"oO.oooooooooX.XXoooooooooXXooooooO.oooooooooXooXX.",
"oo.ooooooooXX.XXoooooooo.Xoooooooo.ooooooooXXoooX.",
"oo.ooooooXXXX.Xooooooooo.ooooooooo.ooooooXXXXoooo ",
"...          .ooooo.oooo.......................   ",
"OOOOoooo oooooooooo.ooooooooooOOOOOOoooo.oooo.oooO",
"ooooooXX oooooooooooooooooooooooooooooXX oooo.oooo",
"ooooXXXX XoooooooooooooXooooooooooooXXXX Xooo.oooX",
"ooooXXXX.XXooooXoooooXXXXoooooooooooXXXX XXoo.ooXX",
"    ..........oooooooo     ....ooooooo     ......X",
"o OOoooXXXXX.ooOOOOooooooooooOoooooooooXXXXX.ooXXX",
"o OooooooXXX.oOOooooooooooooooOooooooooooXXX.ooooX",
"X OooooooooX.OoooooooXoooooooooooooooooooooX.ooooX",
"X.oooooooooo.ooooXXXXooooXXoooo  ooooooooooo.ooXXX",
"X.oooooooooo.ooooXXXoooooXXXooo    ooooooooo.oXXXX",
"..oooooooo.......     .........              .....",
"OooooooooooooooooOO OOOOooXX..OOOOOOOOOO oooo.XXoo",
"oooooooooXXoooooooO OoooooXX..oooooooooo XXoo.XXoo",
"oooooooooXXXXXXXXoo ooooXXXX..ooooXXXXXX XXXX.XXXX",
"ooooooooooXXXXXXXoo.oooXXXXX..XXooXXXXXX.XXXX.XXXX",
"             ...................................  ",
"oo oooXXXXXXo.OOOOOOoooo.ooooooooo.OooXXXXXXoooooo",
"oOoooooXXXXoo.oooooooooX.ooooooooO.OooXXXXXooooooo",
"oOooooooooooo.oooooooXXX.XoooooooO ooXoooooooooooo",
"OOooooooooooo.oooXXXXXXX XXoooooOO ooooooooooooooo",
".oooo      .....            ..        ......... oo",
"oooooo oo oOOOOOo oOOooXXXXX.oOOOOOOOo.ooooOO.XXXo",
"oooooo oo ooooooO oOOooXXXXX.OOOOOoooo.oooooo.XXXX",
"ooooXX   oooooooo.OooooooXXX.oooooooXX.XXoooo.XXXo",
"ooooXX XXXXXooooo.oooooooXXX.oooooooXX.XXXXXo.XXXo",
"XXXXXX XXXXXXXXoo.ooooooXXXX.oXXXXXXXX XXXXXX.XXXX",
"          ..........       ..........    ...... . ",
"OO.XXXXXXXXoO.OOOOoooooX XXooXoOOO.XXXXXXXXoOooX  ",
"oO.XXXXXXoooO.OoooooooXX.XXooXoooO.XXXXXXoooOooXX ",
"oo.oooooooooo.OoooooooXX.Xoooooooo.oooooooooooooX ",
"oo.oooooooooo.ooooooXXXX.XXXoooooo.oooooooooooXXX."
};
